<?xml version="1.0" encoding="UTF-8" ?>
<!DOCTYPE svg PUBLIC "-//W3C//DTD SVG 1.1//EN" "http://www.w3.org/Graphics/SVG/1.1/DTD/svg11.dtd">
<svg width="1000pt" height="1000pt" viewBox="0 0 1000 1000" version="1.1" xmlns="http://www.w3.org/2000/svg">
<g id="#f51021ff">
<path fill="#f51021" opacity="1.00" d=" M 438.13 191.31 C 480.39 176.40 524.92 165.76 569.99 167.13 C 591.38 167.89 613.00 171.98 632.20 181.76 C 649.63 190.67 665.10 204.25 674.26 221.73 C 682.60 237.37 685.43 255.45 684.48 273.02 C 683.81 285.54 681.39 297.90 678.41 310.06 C 677.93 311.42 678.92 312.69 679.18 313.99 C 684.12 329.12 687.41 344.83 688.53 360.71 C 677.75 361.37 666.97 360.88 656.18 361.00 C 656.26 359.63 656.40 358.27 656.50 356.91 C 655.64 358.26 654.81 359.62 654.00 361.00 C 651.50 361.00 649.01 361.00 646.53 361.00 C 650.44 354.51 654.43 348.01 657.43 341.05 C 657.50 323.50 654.68 305.71 647.54 289.59 C 640.47 273.57 628.94 259.53 614.51 249.60 C 597.99 238.08 577.94 232.56 558.00 231.37 C 521.30 229.03 484.74 239.29 452.44 256.27 C 415.76 275.52 383.66 302.40 354.66 331.76 C 326.10 360.85 300.09 392.98 281.41 429.39 C 276.88 438.31 272.71 447.44 269.34 456.86 C 265.11 449.69 260.89 442.50 256.72 435.29 C 275.92 392.91 306.04 356.49 339.36 324.44 C 372.88 292.37 410.52 263.77 453.29 245.22 C 489.82 229.38 530.44 221.47 570.17 226.50 C 602.20 230.81 633.50 245.44 655.15 269.79 C 662.98 278.69 669.02 289.06 673.33 300.08 C 679.43 279.33 680.12 256.55 672.88 235.99 C 666.95 219.08 654.84 204.78 640.02 194.90 C 622.13 182.85 600.40 177.73 579.05 177.13 C 536.00 176.13 493.13 185.78 453.58 202.47 C 406.71 222.36 363.75 250.91 325.76 284.69 C 290.08 316.58 259.25 353.83 234.20 394.60 C 228.27 383.85 223.40 372.55 219.96 360.77 C 215.53 361.10 210.64 360.29 206.50 361.41 C 206.45 371.25 206.60 381.10 206.18 390.94 C 204.63 412.22 203.97 433.56 202.32 454.83 C 192.12 479.26 184.08 504.64 179.48 530.74 C 177.97 531.28 176.46 531.81 174.96 532.38 C 175.95 533.59 177.80 532.83 179.13 533.09 C 175.91 552.84 174.36 572.93 175.39 592.93 C 176.53 613.65 181.45 634.36 191.30 652.72 C 205.69 679.63 230.24 701.43 259.52 710.66 C 282.51 718.18 307.21 718.05 330.98 715.01 C 368.87 710.02 404.93 695.28 437.39 675.44 C 471.48 654.60 502.04 628.43 529.98 599.98 C 550.46 579.12 569.57 556.86 586.59 533.07 C 597.16 532.86 607.77 533.48 618.32 532.72 C 612.74 530.87 607.31 528.55 601.91 526.22 C 599.00 524.90 595.94 523.30 594.49 520.29 L 594.97 520.57 C 599.42 514.73 603.07 508.22 606.96 501.97 C 629.55 464.23 646.16 422.65 653.56 379.19 C 653.93 376.58 654.64 373.98 654.52 371.33 C 658.87 373.97 659.61 379.32 659.44 383.97 C 659.35 419.82 659.63 455.68 659.30 491.52 C 652.11 505.16 644.48 518.57 635.81 531.33 C 634.06 531.73 632.30 532.15 630.57 532.60 C 631.91 532.78 633.26 532.93 634.61 533.07 C 613.86 563.51 588.62 590.77 560.64 614.69 C 529.11 641.86 494.48 665.50 457.33 684.30 C 421.27 702.41 383.00 716.96 342.98 723.17 C 317.35 727.02 290.93 727.37 265.54 721.73 C 236.30 715.44 209.16 700.13 188.60 678.43 C 164.95 654.14 149.66 622.40 143.51 589.19 C 139.60 568.64 138.62 547.58 139.94 526.73 C 148.87 521.20 155.77 512.31 158.04 501.98 C 160.86 489.36 160.01 474.95 152.01 464.31 C 160.60 437.37 172.94 411.72 187.66 387.62 C 204.48 359.94 224.60 334.30 247.29 311.21 C 273.75 284.27 303.71 260.90 335.54 240.64 C 367.71 220.35 402.31 204.03 438.13 191.31 Z" />
<path fill="#f51021" opacity="1.00" d=" M 643.18 366.07 C 645.15 366.82 647.09 367.64 649.01 368.55 C 638.68 382.52 626.83 395.28 614.31 407.30 C 603.90 417.29 593.26 427.09 581.70 435.73 C 576.40 439.63 570.87 443.30 564.75 445.78 C 563.79 443.26 562.81 440.77 561.86 438.26 C 593.85 420.64 622.79 396.59 643.18 366.07 Z" />
<path fill="#f51021" opacity="1.00" d=" M 680.70 374.70 C 682.75 372.32 686.20 372.35 689.07 371.90 C 689.50 395.43 685.59 418.83 679.34 441.46 C 679.10 421.65 679.30 401.84 679.24 382.03 C 679.38 379.56 679.02 376.76 680.70 374.70 Z" />
<path fill="#f51021" opacity="1.00" d=" M 217.52 403.90 C 220.11 406.36 221.29 409.96 223.28 412.90 C 220.77 417.32 218.34 421.78 216.00 426.29 C 216.32 418.81 217.10 411.37 217.52 403.90 Z" />
<path fill="#f51021" opacity="1.00" d=" M 248.51 455.14 C 253.14 463.18 257.77 471.23 262.20 479.40 C 256.92 500.43 254.62 522.38 256.96 543.99 C 259.05 562.87 265.98 581.76 279.28 595.65 C 288.52 605.53 301.50 611.73 315.00 612.71 C 326.06 613.91 337.24 611.12 346.96 605.87 C 352.17 603.02 357.51 599.87 361.09 595.01 C 362.75 592.63 364.20 589.13 362.06 586.59 C 358.01 587.68 355.23 591.24 351.10 592.11 C 345.11 593.53 338.46 593.89 332.72 591.32 C 327.67 589.04 324.71 583.79 323.77 578.51 C 322.41 570.83 322.98 562.55 326.68 555.57 C 331.72 545.88 341.97 538.88 353.00 538.55 C 361.05 538.11 370.15 540.11 375.20 546.93 C 380.76 554.64 381.21 564.79 380.17 573.91 C 378.37 587.92 369.10 599.81 357.85 607.81 C 333.51 625.65 297.47 623.53 274.28 604.71 C 256.70 590.58 244.98 569.84 240.48 547.85 C 235.92 525.51 237.41 502.29 241.95 480.07 C 243.52 471.60 246.47 463.46 248.51 455.14 Z" />
<path fill="#f51021" opacity="1.00" d=" M 703.17 693.05 C 727.31 653.45 750.86 613.46 774.84 573.75 C 780.68 575.50 786.83 576.13 792.90 575.52 C 795.49 575.50 798.14 574.75 800.71 575.30 C 785.95 598.42 771.51 621.75 756.97 645.01 C 739.42 673.22 721.81 701.38 704.78 729.90 C 698.25 741.24 691.61 752.60 686.69 764.76 C 684.84 769.36 683.09 774.81 685.57 779.53 C 687.34 782.76 691.56 783.36 694.87 782.74 C 700.71 781.46 705.55 777.66 710.05 773.92 C 724.20 761.32 735.70 746.07 746.69 730.74 C 751.60 718.63 760.45 708.58 770.51 700.44 C 781.92 691.28 794.70 683.94 807.98 677.88 C 817.78 673.64 828.16 669.82 838.99 670.00 C 846.00 670.12 853.31 674.53 855.33 681.49 C 856.95 688.28 854.26 695.48 849.69 700.54 C 843.38 707.55 834.68 711.79 826.07 715.27 C 808.90 721.89 790.92 726.08 772.92 729.72 C 766.67 739.05 761.20 749.29 759.27 760.47 C 758.38 766.82 758.87 774.39 764.05 778.89 C 769.57 783.39 777.32 783.46 784.02 782.38 C 795.91 780.07 806.20 773.03 815.33 765.38 C 831.40 751.63 844.55 734.91 857.05 717.95 C 857.99 716.59 859.52 715.82 860.58 714.57 C 868.23 704.28 876.07 694.09 884.80 684.69 C 889.34 679.93 894.01 675.12 899.71 671.76 C 906.31 667.72 916.10 670.86 919.15 677.99 C 921.99 684.39 922.02 691.75 920.72 698.54 C 918.17 710.25 912.14 720.79 905.98 730.93 C 911.15 725.81 915.92 720.22 921.52 715.51 C 922.86 714.17 924.79 713.27 925.50 711.40 C 930.97 698.82 938.54 686.94 948.80 677.73 C 953.58 673.57 959.45 669.55 966.08 670.03 C 968.78 670.04 971.29 672.24 971.19 675.05 C 971.25 679.81 967.81 683.60 964.77 686.88 C 956.47 695.17 946.48 701.47 936.60 707.68 C 933.42 709.82 929.87 711.47 927.13 714.19 C 924.59 722.39 922.76 731.56 925.89 739.86 C 927.48 744.39 932.23 747.22 936.96 746.95 C 947.02 746.77 955.21 739.77 961.79 732.84 C 967.12 727.73 970.37 720.71 976.36 716.27 C 977.80 715.77 978.51 717.71 977.48 718.61 C 973.34 724.32 968.31 729.32 963.53 734.49 C 956.83 741.24 948.78 747.73 939.02 748.90 C 933.24 749.62 926.35 747.96 923.50 742.40 C 919.49 734.47 921.25 725.16 923.43 716.97 C 911.57 726.64 901.98 738.84 894.16 751.95 C 887.51 762.49 881.26 773.28 874.93 784.03 C 866.56 783.10 858.17 783.23 849.80 784.03 C 860.82 766.01 871.86 748.01 882.89 730.01 C 889.87 718.47 896.82 706.89 902.71 694.75 C 905.10 689.40 908.09 683.97 908.21 677.99 C 908.37 675.16 905.93 672.46 903.00 673.08 C 898.08 673.90 894.31 677.56 890.76 680.80 C 881.46 689.96 873.78 700.59 866.24 711.20 C 863.96 714.25 862.22 717.76 859.22 720.19 C 845.19 738.27 830.82 756.48 812.70 770.69 C 803.65 777.65 793.48 783.89 782.01 785.65 C 771.76 787.25 760.71 784.07 753.54 776.41 C 743.57 766.65 741.15 751.21 744.62 738.11 C 734.71 750.60 725.08 763.47 713.19 774.19 C 708.62 778.25 703.75 782.16 698.06 784.54 C 690.80 787.79 681.65 785.51 676.54 779.49 C 671.05 773.44 669.52 764.78 670.44 756.88 C 671.27 749.95 673.66 743.27 676.81 737.07 C 665.41 751.71 654.68 767.34 640.04 779.05 C 634.87 783.00 628.67 786.94 621.85 785.85 C 612.51 784.90 605.35 777.25 601.98 768.93 C 597.41 757.39 598.80 744.33 602.99 732.90 C 596.49 739.88 588.71 746.52 579.14 748.57 C 572.85 749.89 564.83 748.68 561.54 742.47 C 557.46 734.52 559.27 725.16 561.43 716.91 C 551.33 725.38 542.55 735.43 535.54 746.60 C 527.66 758.86 520.31 771.45 512.94 784.02 C 504.57 783.10 496.18 783.23 487.81 784.02 C 498.58 766.38 509.41 748.76 520.20 731.13 C 528.44 717.47 536.81 703.81 543.25 689.19 C 544.76 685.31 546.64 681.24 546.10 676.98 C 545.91 674.44 543.40 672.53 540.90 673.09 C 535.80 674.02 531.93 677.88 528.27 681.27 C 518.36 691.22 510.19 702.72 502.17 714.20 C 500.74 716.07 499.70 718.38 497.65 719.69 C 495.83 720.26 495.84 717.85 496.87 717.00 C 504.64 706.20 512.83 695.66 521.78 685.79 C 526.63 680.64 531.59 675.38 537.73 671.75 C 542.82 668.60 549.92 669.86 554.21 673.83 C 559.12 678.79 559.69 686.34 559.48 692.95 C 558.27 706.84 551.04 719.23 543.96 730.92 C 550.10 724.72 555.99 718.17 562.82 712.66 C 569.00 698.85 577.15 685.48 589.04 675.86 C 593.58 672.31 599.27 669.13 605.23 670.21 C 607.50 670.58 609.22 672.69 609.19 675.00 C 609.28 679.76 605.85 683.56 602.81 686.84 C 592.65 696.98 580.07 704.13 568.06 711.80 C 566.90 712.77 565.13 713.47 564.81 715.11 C 562.51 723.09 560.83 731.96 563.94 739.96 C 565.56 744.48 570.34 747.24 575.06 746.95 C 584.09 746.80 591.70 740.93 597.85 734.85 C 604.52 728.43 609.24 720.38 615.38 713.50 C 626.80 700.47 641.52 690.91 656.45 682.38 C 667.18 676.56 678.57 671.02 690.91 670.05 C 695.65 669.64 701.49 670.44 704.06 675.01 C 707.02 680.67 705.50 687.43 703.17 693.05 M 690.00 673.23 C 683.28 674.23 677.34 677.86 671.97 681.83 C 660.26 690.76 650.60 702.02 641.42 713.46 C 631.95 725.61 622.91 738.43 617.50 752.97 C 614.91 760.47 612.89 768.89 615.44 776.67 C 617.20 782.12 623.88 784.12 628.94 782.38 C 634.57 780.43 639.22 776.50 643.58 772.55 C 652.20 764.45 659.67 755.23 666.88 745.89 C 676.57 733.03 686.01 719.93 694.05 705.97 C 697.07 700.52 700.05 694.98 701.76 688.96 C 702.88 684.87 703.06 680.05 700.60 676.40 C 698.22 673.10 693.71 672.72 690.00 673.23 M 812.79 684.82 C 799.10 695.67 787.50 708.92 777.16 722.95 C 776.34 724.09 775.27 725.15 775.02 726.60 C 790.93 722.29 806.58 716.47 820.57 707.64 C 828.14 702.81 835.67 697.40 840.80 689.89 C 843.38 685.89 845.48 680.64 843.54 675.97 C 841.62 672.63 837.11 672.76 833.83 673.38 C 825.90 675.12 819.12 679.96 812.79 684.82 Z" />
</g>
<g id="#007fb1ff">
<path fill="#007fb1" opacity="1.00" d=" M 928.09 360.99 C 932.45 359.92 936.60 358.01 940.85 356.52 C 940.86 373.74 940.81 391.00 940.34 408.21 C 937.03 398.68 935.01 388.63 930.38 379.60 C 928.28 375.42 923.17 374.61 918.97 374.58 C 907.35 374.56 895.73 374.53 884.11 374.60 C 884.17 420.75 884.05 466.91 884.17 513.07 C 883.94 517.94 885.75 523.53 890.65 525.48 C 898.11 528.33 906.06 529.66 913.43 532.80 C 889.35 533.42 865.17 532.87 841.06 533.07 C 839.34 532.93 837.44 533.35 835.89 532.48 C 844.06 530.58 852.35 528.70 859.83 524.78 C 862.65 523.25 864.01 519.92 864.30 516.88 C 864.18 469.47 864.29 422.00 864.24 374.58 C 851.54 374.66 838.82 374.33 826.14 374.75 C 821.71 374.65 818.70 378.54 817.52 382.41 C 814.73 390.84 813.30 399.66 810.38 408.06 C 809.63 391.13 809.38 374.16 809.15 357.22 C 812.74 358.43 816.16 360.39 819.92 360.99 C 855.97 361.00 892.03 361.01 928.09 360.99 Z" />
<path fill="#007fb1" opacity="1.00" d=" M 71.37 374.34 C 82.52 363.10 98.34 357.08 114.08 356.88 C 126.07 357.05 138.03 358.92 149.55 362.24 C 149.48 376.85 149.87 391.45 149.87 406.06 L 149.34 405.81 C 145.78 397.58 142.65 389.16 138.95 380.98 C 136.60 376.02 131.83 372.55 126.51 371.39 C 116.93 369.12 106.37 368.15 97.10 372.14 C 86.47 376.74 78.42 387.25 77.44 398.88 C 76.75 404.68 77.88 410.83 81.38 415.59 C 87.26 423.19 95.20 428.97 103.78 433.18 C 118.86 440.57 133.88 448.44 146.99 459.05 C 148.83 460.62 150.56 462.36 152.01 464.31 C 160.01 474.95 160.86 489.36 158.04 501.98 C 155.77 512.31 148.87 521.20 139.94 526.73 C 125.57 535.87 107.59 537.75 91.04 535.04 C 82.53 533.54 74.02 531.79 65.78 529.15 C 65.37 514.44 65.12 499.73 64.56 485.03 C 68.26 493.01 70.67 501.57 74.51 509.50 C 79.20 518.40 89.78 521.52 99.03 523.00 C 109.38 524.99 120.66 523.38 129.43 517.30 C 135.84 513.20 141.02 506.66 142.07 498.97 C 143.33 490.20 141.48 480.32 134.89 473.98 C 129.44 468.96 123.14 464.97 116.60 461.54 C 107.67 456.84 98.86 451.91 90.04 447.03 C 81.90 442.56 74.24 437.00 68.18 429.92 C 62.39 422.66 60.58 413.06 60.42 403.99 C 60.16 393.22 63.69 382.10 71.37 374.34 Z" />
<path fill="#007fb1" opacity="1.00" d=" M 206.50 361.41 C 210.64 360.29 215.53 361.10 219.96 360.77 C 223.40 372.55 228.27 383.85 234.20 394.60 C 241.50 408.27 249.28 421.69 256.72 435.29 C 260.89 442.50 265.11 449.69 269.34 456.86 C 278.03 471.20 286.11 485.97 295.71 499.73 C 310.84 474.44 324.22 448.16 338.27 422.27 C 348.97 402.07 361.01 382.50 369.34 361.13 C 373.67 360.72 378.03 360.87 382.38 360.75 C 383.51 380.19 385.27 399.59 387.09 418.99 C 389.78 446.35 391.85 473.77 394.53 501.13 C 395.31 508.02 395.66 515.16 398.53 521.59 C 400.17 524.32 403.34 525.49 406.10 526.77 C 411.44 528.95 416.90 530.81 422.30 532.84 C 416.56 533.30 410.79 532.96 405.05 533.06 C 386.74 532.97 368.43 533.24 350.13 532.92 C 356.88 529.72 364.43 528.63 371.04 525.12 C 375.10 522.20 376.43 516.74 376.48 511.99 C 372.71 474.04 369.65 435.99 365.98 398.02 C 345.64 433.86 326.17 470.19 306.49 506.39 C 301.68 515.79 297.23 525.36 292.69 534.88 C 282.27 516.53 272.50 497.82 262.20 479.40 C 257.77 471.23 253.14 463.18 248.51 455.14 C 240.26 440.96 231.68 426.98 223.28 412.90 C 221.29 409.96 220.11 406.36 217.52 403.90 C 217.10 411.37 216.32 418.81 216.00 426.29 C 213.93 452.49 212.26 478.71 210.08 504.90 C 209.86 510.36 209.68 516.08 211.76 521.24 C 213.22 525.05 217.39 526.47 220.86 527.88 C 225.47 529.31 229.82 531.47 234.54 532.56 C 231.05 533.33 227.46 533.01 223.92 533.06 C 208.99 533.08 194.06 533.03 179.13 533.09 C 177.80 532.83 175.95 533.59 174.96 532.38 C 176.46 531.81 177.97 531.28 179.48 530.74 C 185.03 528.17 191.88 526.83 195.70 521.70 C 198.96 511.48 198.14 500.48 199.37 489.92 C 200.78 478.26 201.54 466.54 202.32 454.83 C 203.97 433.56 204.63 412.22 206.18 390.94 C 206.60 381.10 206.45 371.25 206.50 361.41 Z" />
<path fill="#007fb1" opacity="1.00" d=" M 519.55 361.23 C 524.76 361.10 529.98 361.03 535.20 360.99 C 536.80 365.98 537.82 371.14 539.57 376.09 C 546.61 396.95 554.22 417.61 561.86 438.26 C 562.81 440.77 563.79 443.26 564.75 445.78 C 571.86 464.98 579.08 484.15 586.78 503.13 C 589.20 508.92 591.64 514.70 594.49 520.29 C 595.94 523.30 599.00 524.90 601.91 526.22 C 607.31 528.55 612.74 530.87 618.32 532.72 C 607.77 533.48 597.16 532.86 586.59 533.07 C 574.61 533.19 562.62 532.78 550.66 533.29 C 550.55 532.77 550.55 532.25 550.66 531.75 C 555.92 531.40 560.86 528.71 565.77 526.80 C 569.45 525.44 573.16 521.73 571.26 517.52 C 565.47 499.59 558.55 482.05 552.55 464.20 C 533.34 463.89 514.12 464.14 494.90 464.07 C 489.87 477.40 484.89 490.75 479.85 504.08 C 477.76 509.51 476.11 515.13 475.20 520.88 C 474.37 524.06 477.84 525.74 480.22 526.79 C 485.67 528.97 491.32 530.63 496.73 532.94 C 475.69 533.07 454.62 533.29 433.59 532.82 C 440.64 530.23 448.03 528.36 454.57 524.57 C 456.48 523.50 457.95 521.80 458.82 519.81 C 473.92 484.51 488.77 449.08 502.18 413.10 C 508.32 395.93 515.70 379.11 519.55 361.23 M 523.30 391.27 C 515.68 411.54 507.59 431.64 499.84 451.87 C 515.56 451.88 531.27 451.86 546.99 451.88 C 541.78 438.21 536.47 424.57 531.23 410.92 C 528.49 404.42 526.50 397.49 523.30 391.27 Z" />
<path fill="#007fb1" opacity="1.00" d=" M 630.51 361.32 C 635.82 360.67 641.19 361.14 646.53 361.00 C 649.01 361.00 651.50 361.00 654.00 361.00 C 654.54 361.00 655.63 361.00 656.18 361.00 C 666.97 360.88 677.75 361.37 688.53 360.71 C 698.10 360.37 707.77 360.35 717.21 362.24 C 727.81 364.90 737.24 371.34 744.39 379.51 C 753.48 390.69 755.05 406.29 752.40 420.04 C 750.52 429.95 743.23 437.63 735.37 443.40 C 727.30 449.10 717.72 452.40 708.04 454.02 C 718.81 466.21 729.98 478.04 740.60 490.37 C 747.17 497.77 753.56 505.35 760.80 512.12 C 766.50 517.47 771.74 523.53 778.66 527.37 C 783.27 530.05 788.02 532.54 793.02 534.44 C 792.33 535.91 790.26 535.40 789.03 536.03 C 781.33 538.50 773.36 535.53 765.90 533.57 C 758.79 531.91 753.23 526.81 748.12 521.90 C 734.15 507.83 721.01 492.98 707.42 478.55 C 700.19 470.75 692.84 463.04 685.68 455.17 C 683.53 454.99 681.37 455.04 679.23 455.11 C 679.34 474.75 679.12 494.39 679.34 514.03 C 679.14 518.78 681.46 523.97 686.18 525.65 C 693.52 528.38 701.33 529.67 708.53 532.84 C 683.91 533.35 659.25 532.91 634.61 533.07 C 633.26 532.93 631.91 532.78 630.57 532.60 C 632.30 532.15 634.06 531.73 635.81 531.33 C 642.38 529.83 648.95 527.96 654.95 524.83 C 658.82 522.82 659.44 517.98 659.39 514.07 C 659.32 506.55 659.46 499.03 659.30 491.52 C 659.63 455.68 659.35 419.82 659.44 383.97 C 659.61 379.32 658.87 373.97 654.52 371.33 C 652.70 370.35 650.86 369.43 649.01 368.55 C 647.09 367.64 645.15 366.82 643.18 366.07 C 638.96 364.49 634.76 362.82 630.51 361.32 M 680.70 374.70 C 679.02 376.76 679.38 379.56 679.24 382.03 C 679.30 401.84 679.10 421.65 679.34 441.46 C 679.23 442.69 679.20 443.94 679.26 445.19 C 686.86 444.87 694.57 445.35 702.06 443.76 C 713.73 441.30 725.32 434.82 731.25 424.14 C 738.75 409.48 734.54 389.65 721.30 379.67 C 712.50 372.06 700.24 370.55 689.07 371.90 C 686.20 372.35 682.75 372.32 680.70 374.70 Z" />
</g>
</svg>
