<?xml version="1.0" encoding="UTF-8" ?>
<!DOCTYPE svg PUBLIC "-//W3C//DTD SVG 1.1//EN" "http://www.w3.org/Graphics/SVG/1.1/DTD/svg11.dtd">
<svg width="1333pt" height="649pt" viewBox="0 0 1333 649" version="1.1" xmlns="http://www.w3.org/2000/svg">
<g id="#f51021ff">
<path fill="#f51021" opacity="1.00" d=" M 992.39 25.49 C 1023.01 15.93 1054.82 9.54 1086.97 9.01 C 1095.91 8.93 1104.99 8.95 1113.70 11.17 C 1117.44 12.24 1121.62 13.77 1123.59 17.40 C 1125.54 21.67 1123.86 27.77 1119.18 29.44 C 1114.67 30.96 1109.79 30.43 1105.12 30.32 C 1094.10 29.28 1083.07 28.20 1071.99 28.07 C 1039.60 27.75 1007.46 34.04 976.66 43.73 C 942.12 54.64 909.07 69.85 877.30 87.16 C 843.13 105.84 810.31 126.95 778.88 149.93 C 753.50 168.54 729.05 188.48 706.43 210.38 C 682.63 233.94 660.01 258.64 637.39 283.32 C 610.02 313.33 582.96 343.64 556.05 374.08 C 506.01 430.93 455.70 487.62 401.94 541.01 C 380.00 562.74 357.56 584.03 333.70 603.66 C 319.36 615.49 304.18 626.26 288.99 636.99 C 282.70 641.22 276.57 645.82 269.66 649.00 L 267.71 649.00 C 267.37 648.48 266.70 647.44 266.36 646.92 C 274.83 634.04 284.78 622.19 293.56 609.52 C 339.29 545.08 375.08 474.02 403.68 400.48 C 419.54 359.40 433.28 317.34 441.81 274.09 C 448.38 240.55 451.64 206.10 448.02 172.01 C 445.40 147.58 439.05 122.70 424.37 102.58 C 413.05 86.91 396.22 75.63 377.71 70.28 C 351.23 62.58 322.69 63.79 296.29 71.21 C 264.71 80.04 235.23 95.16 207.62 112.64 C 145.62 152.53 94.34 208.83 59.97 274.02 C 41.52 309.26 27.18 347.26 22.95 387.03 C 20.45 411.58 21.33 437.19 30.77 460.30 C 37.46 476.78 48.87 491.40 63.56 501.50 C 76.09 510.17 90.92 515.17 105.99 516.98 C 132.15 520.21 158.96 515.30 182.91 504.54 C 211.60 491.71 236.43 471.63 258.20 449.21 C 279.47 427.11 298.30 402.72 314.99 377.00 C 333.57 347.91 349.34 316.22 355.38 281.96 C 358.25 264.34 359.21 245.77 353.52 228.59 C 348.80 214.30 338.26 201.41 323.89 196.15 C 306.88 189.94 287.45 192.95 271.99 201.90 C 268.99 203.76 265.84 205.91 264.32 209.22 C 263.73 210.68 263.19 213.15 265.09 213.90 C 273.04 215.03 281.03 210.97 288.93 213.32 C 293.93 214.47 298.02 218.46 299.43 223.37 C 301.81 231.56 300.79 240.91 295.91 248.01 C 290.15 256.51 280.42 262.45 270.06 262.81 C 262.41 263.19 253.75 261.66 248.57 255.49 C 242.99 248.72 242.57 239.29 243.49 230.96 C 245.20 216.60 254.84 204.47 266.42 196.43 C 280.34 186.46 298.28 183.12 315.07 185.58 C 328.08 187.40 340.24 194.22 348.64 204.31 C 359.31 216.62 364.22 232.98 364.89 249.05 C 365.90 275.49 359.95 301.80 350.24 326.28 C 340.44 350.96 326.96 374.02 311.73 395.72 C 293.65 421.18 273.61 445.41 250.67 466.67 C 228.76 486.88 203.86 504.44 175.79 514.94 C 150.45 524.47 122.52 527.68 95.83 522.69 C 71.90 518.33 49.75 505.61 33.69 487.39 C 13.66 465.49 2.99 436.26 0.86 406.90 C -1.15 380.73 1.89 354.25 8.97 329.01 C 18.25 295.94 34.40 265.12 54.14 237.13 C 75.82 206.42 101.66 178.83 129.47 153.62 C 162.09 124.22 198.39 98.32 238.86 80.87 C 276.15 64.78 317.21 56.41 357.85 59.72 C 387.65 62.19 416.85 73.77 439.22 93.79 C 465.09 116.40 482.35 147.94 489.44 181.41 C 498.09 222.30 494.99 264.92 485.57 305.38 C 475.14 349.38 456.66 391.11 434.26 430.26 C 395.35 497.80 346.84 559.21 296.34 618.36 C 295.06 619.79 294.06 621.46 293.79 623.40 C 296.05 623.18 298.18 622.35 300.09 621.15 C 306.44 617.32 312.29 612.72 318.14 608.18 C 346.72 585.29 374.19 560.96 399.44 534.42 C 426.15 506.42 451.45 477.12 477.26 448.29 C 505.59 416.26 533.91 384.20 562.15 352.08 C 610.87 296.34 660.35 241.01 715.38 191.35 C 768.13 143.75 827.23 103.44 889.71 69.72 C 922.60 52.11 956.76 36.67 992.39 25.49 Z" />
<path fill="#f51021" opacity="1.00" d=" M 566.95 505.81 C 574.85 502.84 583.69 500.61 592.05 502.96 C 597.51 504.43 601.22 509.58 602.01 515.02 C 603.61 525.03 601.01 535.19 597.33 544.46 C 592.52 556.43 585.35 567.23 577.91 577.70 C 585.95 582.06 595.52 579.31 602.86 574.84 C 610.92 569.90 618.78 563.94 624.00 555.94 C 636.35 533.70 657.57 517.81 680.29 507.24 C 687.99 503.91 696.47 500.88 704.97 502.44 C 710.11 503.38 713.91 507.87 714.86 512.89 C 717.23 524.45 713.51 536.46 707.27 546.21 C 703.76 551.59 699.76 557.03 694.03 560.22 C 690.08 562.38 684.73 562.91 680.91 560.23 C 677.23 556.95 677.47 551.02 679.55 546.91 C 683.31 539.94 690.62 536.02 697.41 532.54 C 703.39 529.50 709.29 524.76 710.80 517.89 C 711.73 513.75 711.32 508.12 706.93 506.13 C 700.17 503.36 692.69 506.34 686.99 510.17 C 676.21 517.55 667.95 527.91 660.22 538.29 C 650.37 551.93 641.15 566.52 636.84 582.94 C 635.05 590.67 633.92 599.27 637.31 606.73 C 639.82 612.31 646.12 614.93 651.95 614.94 C 662.55 615.19 672.13 609.54 680.45 603.51 C 697.45 590.60 711.40 574.19 724.49 557.45 C 733.73 541.74 748.24 529.99 763.59 520.59 C 776.80 512.75 790.59 504.98 805.93 502.38 C 811.13 501.71 817.53 501.32 821.38 505.61 C 825.34 510.34 823.91 516.87 823.18 522.44 C 826.32 516.21 829.49 509.99 832.94 503.93 C 841.11 506.28 849.69 505.29 857.94 503.98 C 849.31 518.31 840.69 532.66 832.06 547.00 C 824.56 559.56 816.73 571.95 810.21 585.06 C 807.71 590.17 805.30 595.39 803.81 600.90 C 802.89 604.38 802.79 608.28 804.45 611.56 C 806.21 614.91 810.68 615.57 813.99 614.45 C 819.37 612.56 823.77 608.73 828.04 605.07 C 845.93 588.69 860.54 569.12 874.30 549.25 C 874.92 547.74 877.58 547.95 876.99 549.92 C 875.32 554.23 872.25 557.79 869.61 561.53 C 860.53 573.40 850.99 584.91 841.18 596.18 C 834.08 603.83 826.63 611.63 817.07 616.18 C 809.64 619.84 799.96 617.85 794.59 611.54 C 789.03 605.49 787.48 596.78 788.48 588.84 C 789.14 582.54 791.44 576.60 793.95 570.84 C 784.73 583.20 775.81 595.91 764.88 606.85 C 758.30 613.32 749.53 619.09 739.87 617.85 C 731.33 617.02 724.53 610.46 720.93 603.03 C 715.53 591.83 716.51 578.69 720.06 567.10 C 707.34 581.33 694.99 596.26 679.27 607.35 C 670.18 613.70 659.36 619.19 647.93 617.80 C 638.17 616.94 629.54 610.85 623.99 602.99 C 615.71 591.61 615.35 575.91 620.75 563.24 C 615.39 569.50 608.68 574.64 601.39 578.45 C 593.67 582.48 584.18 583.33 576.16 579.68 C 567.88 591.29 558.74 602.68 546.84 610.77 C 539.08 616.04 529.42 619.45 520.00 617.42 C 510.66 615.48 503.44 607.98 499.49 599.59 C 494.30 588.19 495.57 574.72 500.44 563.43 C 506.59 549.32 517.65 538.05 529.51 528.54 C 541.03 519.56 553.30 511.22 566.95 505.81 M 575.02 507.19 C 565.61 511.39 558.09 518.74 551.21 526.23 C 541.10 537.67 532.05 550.08 524.53 563.38 C 518.04 575.21 512.51 588.24 512.74 601.97 C 512.66 607.19 515.44 612.96 520.87 614.27 C 529.69 616.49 538.78 612.87 546.05 608.00 C 557.33 600.25 566.14 589.51 574.07 578.49 C 571.10 574.99 568.55 570.82 568.30 566.13 C 567.89 559.10 570.68 552.30 574.52 546.55 C 578.53 540.81 583.56 534.33 591.03 533.53 C 593.63 532.99 595.30 535.26 596.30 537.28 C 598.95 530.91 600.00 523.82 599.03 516.97 C 598.45 512.69 596.16 508.35 592.07 506.53 C 586.67 504.08 580.32 504.89 575.02 507.19 M 809.14 505.23 C 805.49 505.74 802.01 507.08 798.76 508.79 C 788.27 514.46 779.68 522.98 771.64 531.65 C 761.12 543.34 751.23 555.72 743.22 569.28 C 737.79 578.71 732.99 588.96 732.32 599.98 C 732.09 604.45 732.62 609.71 736.37 612.71 C 740.33 615.67 745.98 615.55 750.21 613.19 C 757.16 609.49 762.75 603.77 768.16 598.14 C 779.62 585.76 789.74 572.21 799.46 558.44 C 806.70 547.81 814.01 537.01 818.73 524.97 C 820.65 519.82 822.26 513.64 819.42 508.53 C 817.30 505.08 812.77 504.71 809.14 505.23 Z" />
</g>
<g id="#007fb1ff">
<path fill="#007fb1" opacity="1.00" d=" M 854.41 219.02 C 858.92 218.85 863.44 218.82 867.97 218.74 C 871.46 230.54 876.34 241.86 882.25 252.66 C 899.07 283.84 916.82 314.50 935.24 344.77 C 938.01 349.14 940.56 353.67 943.76 357.75 C 958.16 333.48 971.09 308.38 984.51 283.57 C 995.70 262.19 1008.54 241.60 1017.39 219.07 C 1021.71 218.79 1026.05 218.84 1030.38 218.74 C 1032.12 249.42 1035.59 279.97 1038.16 310.58 C 1039.59 326.77 1040.93 342.96 1042.53 359.13 C 1043.30 366.02 1043.66 373.14 1046.51 379.56 C 1048.32 382.53 1051.83 383.71 1054.84 385.09 C 1059.98 387.07 1065.15 389.02 1070.39 390.76 C 1057.28 391.44 1044.12 390.88 1030.99 391.06 C 1020.21 390.99 1009.43 391.20 998.66 390.95 C 1005.23 387.23 1013.17 386.72 1019.63 382.72 C 1024.90 377.92 1025.08 369.95 1023.79 363.41 C 1020.48 327.50 1017.25 291.58 1014.04 255.66 C 999.26 282.39 984.33 309.05 969.93 335.99 C 962.65 349.66 954.77 363.03 948.22 377.08 C 945.63 382.33 943.30 387.70 940.55 392.86 C 924.54 363.78 909.02 334.42 892.19 305.80 C 883.44 291.00 874.48 276.32 865.66 261.56 C 863.53 289.37 861.57 317.19 859.51 345.01 C 859.05 354.70 857.13 364.41 858.39 374.11 C 858.89 377.68 860.09 381.72 863.58 383.46 C 869.52 386.58 876.09 388.26 882.30 390.78 C 862.25 391.38 842.13 390.98 822.06 390.98 C 828.39 387.96 835.39 386.26 841.28 382.32 C 843.11 381.09 844.23 379.09 844.62 376.95 C 846.82 366.08 846.34 354.92 847.82 343.97 C 850.45 317.37 851.67 290.65 853.16 263.97 C 854.42 249.02 854.55 234.01 854.41 219.02 Z" />
<path fill="#007fb1" opacity="1.00" d=" M 1083.34 219.11 C 1122.16 218.85 1160.99 219.07 1199.82 219.01 C 1199.76 231.78 1199.69 244.56 1199.58 257.34 C 1197.40 251.27 1195.40 245.13 1192.78 239.24 C 1191.47 236.11 1188.80 233.71 1185.67 232.50 C 1180.07 230.20 1173.88 230.84 1167.98 230.64 C 1157.30 230.76 1146.55 229.88 1135.94 231.25 C 1132.39 231.97 1132.30 236.06 1132.28 238.95 C 1132.20 258.29 1132.28 277.64 1132.24 296.99 C 1146.19 296.91 1160.15 297.21 1174.10 296.83 C 1178.47 296.93 1182.23 294.01 1184.42 290.43 C 1186.58 286.70 1187.99 282.59 1190.20 278.89 C 1190.28 296.95 1190.28 315.02 1190.20 333.09 C 1187.24 327.32 1185.97 320.83 1183.05 315.04 C 1180.79 310.72 1175.59 308.91 1170.97 308.94 C 1158.06 308.93 1145.16 308.94 1132.25 308.95 C 1132.25 325.29 1132.25 341.63 1132.25 357.98 C 1132.34 363.96 1131.67 370.21 1134.01 375.89 C 1135.07 379.13 1138.97 379.87 1141.96 379.98 C 1155.64 379.54 1169.33 379.75 1183.02 379.55 C 1187.51 379.36 1192.43 381.11 1196.60 378.72 C 1199.25 376.60 1200.06 373.07 1201.26 370.05 C 1203.03 364.31 1205.37 358.78 1207.73 353.26 C 1207.40 365.82 1206.92 378.38 1206.62 390.95 C 1165.54 390.96 1124.46 391.19 1083.39 390.83 C 1091.83 388.37 1100.72 386.90 1108.44 382.48 C 1111.69 380.57 1112.31 376.45 1112.38 373.02 C 1112.36 327.67 1112.39 282.33 1112.36 236.99 C 1112.44 233.75 1111.73 230.10 1108.80 228.24 C 1101.00 223.50 1091.75 222.35 1083.34 219.11 Z" />
</g>
</svg>
